<svg id="visual" viewBox="0 0 900 600" width="900" height="600" xmlns="http://www.w3.org/2000/svg" xmlns:xlink="http://www.w3.org/1999/xlink" version="1.1"><rect x="0" y="0" width="900" height="600" fill="#88aba3"></rect><defs><linearGradient id="grad1_0" x1="33.3%" y1="0%" x2="100%" y2="100%"><stop offset="20%" stop-color="#00362a" stop-opacity="1"></stop><stop offset="80%" stop-color="#00362a" stop-opacity="1"></stop></linearGradient></defs><defs><linearGradient id="grad1_1" x1="33.3%" y1="0%" x2="100%" y2="100%"><stop offset="20%" stop-color="#00362a" stop-opacity="1"></stop><stop offset="80%" stop-color="#1a483c" stop-opacity="1"></stop></linearGradient></defs><defs><linearGradient id="grad1_2" x1="33.3%" y1="0%" x2="100%" y2="100%"><stop offset="20%" stop-color="#305b50" stop-opacity="1"></stop><stop offset="80%" stop-color="#1a483c" stop-opacity="1"></stop></linearGradient></defs><defs><linearGradient id="grad1_3" x1="33.3%" y1="0%" x2="100%" y2="100%"><stop offset="20%" stop-color="#305b50" stop-opacity="1"></stop><stop offset="80%" stop-color="#456e64" stop-opacity="1"></stop></linearGradient></defs><defs><linearGradient id="grad1_4" x1="33.3%" y1="0%" x2="100%" y2="100%"><stop offset="20%" stop-color="#5b8278" stop-opacity="1"></stop><stop offset="80%" stop-color="#456e64" stop-opacity="1"></stop></linearGradient></defs><defs><linearGradient id="grad1_5" x1="33.3%" y1="0%" x2="100%" y2="100%"><stop offset="20%" stop-color="#5b8278" stop-opacity="1"></stop><stop offset="80%" stop-color="#71968d" stop-opacity="1"></stop></linearGradient></defs><defs><linearGradient id="grad1_6" x1="33.3%" y1="0%" x2="100%" y2="100%"><stop offset="20%" stop-color="#88aba3" stop-opacity="1"></stop><stop offset="80%" stop-color="#71968d" stop-opacity="1"></stop></linearGradient></defs><defs><linearGradient id="grad2_0" x1="0%" y1="0%" x2="66.7%" y2="100%"><stop offset="20%" stop-color="#00362a" stop-opacity="1"></stop><stop offset="80%" stop-color="#00362a" stop-opacity="1"></stop></linearGradient></defs><defs><linearGradient id="grad2_1" x1="0%" y1="0%" x2="66.7%" y2="100%"><stop offset="20%" stop-color="#1a483c" stop-opacity="1"></stop><stop offset="80%" stop-color="#00362a" stop-opacity="1"></stop></linearGradient></defs><defs><linearGradient id="grad2_2" x1="0%" y1="0%" x2="66.7%" y2="100%"><stop offset="20%" stop-color="#1a483c" stop-opacity="1"></stop><stop offset="80%" stop-color="#305b50" stop-opacity="1"></stop></linearGradient></defs><defs><linearGradient id="grad2_3" x1="0%" y1="0%" x2="66.7%" y2="100%"><stop offset="20%" stop-color="#456e64" stop-opacity="1"></stop><stop offset="80%" stop-color="#305b50" stop-opacity="1"></stop></linearGradient></defs><defs><linearGradient id="grad2_4" x1="0%" y1="0%" x2="66.7%" y2="100%"><stop offset="20%" stop-color="#456e64" stop-opacity="1"></stop><stop offset="80%" stop-color="#5b8278" stop-opacity="1"></stop></linearGradient></defs><defs><linearGradient id="grad2_5" x1="0%" y1="0%" x2="66.7%" y2="100%"><stop offset="20%" stop-color="#71968d" stop-opacity="1"></stop><stop offset="80%" stop-color="#5b8278" stop-opacity="1"></stop></linearGradient></defs><defs><linearGradient id="grad2_6" x1="0%" y1="0%" x2="66.7%" y2="100%"><stop offset="20%" stop-color="#71968d" stop-opacity="1"></stop><stop offset="80%" stop-color="#88aba3" stop-opacity="1"></stop></linearGradient></defs><g transform="translate(900, 0)"><path d="M0 486.7C-42.2 431.6 -84.3 376.5 -150 362.2C-215.7 347.8 -305 374.3 -344.2 344.2C-383.4 314.1 -372.6 227.5 -388 160.7C-403.5 93.9 -445.1 47 -486.7 0L0 0Z" fill="#7ca198"></path><path d="M0 417.2C-36.1 370 -72.3 322.7 -128.6 310.4C-184.9 298.1 -261.4 320.8 -295 295C-328.6 269.2 -319.4 195 -332.6 137.8C-345.8 80.5 -381.5 40.3 -417.2 0L0 0Z" fill="#668c83"></path><path d="M0 347.7C-30.1 308.3 -60.2 268.9 -107.2 258.7C-154.1 248.4 -217.8 267.3 -245.8 245.8C-273.9 224.4 -266.1 162.5 -277.2 114.8C-288.2 67.1 -317.9 33.6 -347.7 0L0 0Z" fill="#50786e"></path><path d="M0 278.1C-24.1 246.6 -48.2 215.1 -85.7 206.9C-123.3 198.8 -174.3 213.9 -196.7 196.7C-219.1 179.5 -212.9 130 -221.7 91.8C-230.5 53.7 -254.3 26.8 -278.1 0L0 0Z" fill="#3a6459"></path><path d="M0 208.6C-18.1 185 -36.1 161.4 -64.3 155.2C-92.4 149.1 -130.7 160.4 -147.5 147.5C-164.3 134.6 -159.7 97.5 -166.3 68.9C-172.9 40.3 -190.8 20.1 -208.6 0L0 0Z" fill="#255146"></path><path d="M0 139.1C-12 123.3 -24.1 107.6 -42.9 103.5C-61.6 99.4 -87.1 106.9 -98.3 98.3C-109.5 89.7 -106.5 65 -110.9 45.9C-115.3 26.8 -127.2 13.4 -139.1 0L0 0Z" fill="#0d3f33"></path><path d="M0 69.5C-6 61.7 -12 53.8 -21.4 51.7C-30.8 49.7 -43.6 53.5 -49.2 49.2C-54.8 44.9 -53.2 32.5 -55.4 23C-57.6 13.4 -63.6 6.7 -69.5 0L0 0Z" fill="#00362a"></path></g><g transform="translate(0, 600)"><path d="M0 -486.7C68.4 -485.4 136.7 -484 186.3 -449.7C235.8 -415.4 266.6 -348 295.6 -295.6C324.6 -243.1 351.8 -205.6 383.4 -158.8C415 -112 450.9 -56 486.7 0L0 0Z" fill="#7ca198"></path><path d="M0 -417.2C58.6 -416.1 117.2 -414.9 159.7 -385.5C202.1 -356 228.5 -298.3 253.3 -253.3C278.2 -208.4 301.6 -176.2 328.6 -136.1C355.7 -96 386.5 -48 417.2 0L0 0Z" fill="#668c83"></path><path d="M0 -347.7C48.8 -346.7 97.7 -345.7 133.1 -321.2C168.4 -296.7 190.4 -248.6 211.1 -211.1C231.8 -173.7 251.3 -146.9 273.9 -113.4C296.4 -80 322 -40 347.7 0L0 0Z" fill="#50786e"></path><path d="M0 -278.1C39.1 -277.4 78.1 -276.6 106.4 -257C134.8 -237.3 152.3 -198.9 168.9 -168.9C185.5 -138.9 201 -117.5 219.1 -90.8C237.1 -64 257.6 -32 278.1 0L0 0Z" fill="#3a6459"></path><path d="M0 -208.6C29.3 -208 58.6 -207.4 79.8 -192.7C101.1 -178 114.2 -149.1 126.7 -126.7C139.1 -104.2 150.8 -88.1 164.3 -68.1C177.8 -48 193.2 -24 208.6 0L0 0Z" fill="#255146"></path><path d="M0 -139.1C19.5 -138.7 39.1 -138.3 53.2 -128.5C67.4 -118.7 76.2 -99.4 84.4 -84.4C92.7 -69.5 100.5 -58.7 109.5 -45.4C118.6 -32 128.8 -16 139.1 0L0 0Z" fill="#0d3f33"></path><path d="M0 -69.5C9.8 -69.3 19.5 -69.1 26.6 -64.2C33.7 -59.3 38.1 -49.7 42.2 -42.2C46.4 -34.7 50.3 -29.4 54.8 -22.7C59.3 -16 64.4 -8 69.5 0L0 0Z" fill="#00362a"></path></g></svg>